<svg viewBox="0 0 840 560" fill="none" xmlns="http://www.w3.org/2000/svg" font-family="ui-monospace, 'SF Mono', Menlo, monospace">
  <rect width="840" height="560" fill="#16121f"/>

  <!-- one line in -->
  <path d="M-10 280 H236" stroke="#f2efe6" stroke-width="14" stroke-linecap="round"/>

  <!-- the collider -->
  <circle cx="300" cy="280" r="46" stroke="#f2efe6" stroke-width="14"/>
  <!-- spark ticks around the collider -->
  <g stroke="#f2efe6" stroke-width="5" stroke-linecap="round">
    <path d="M300 200 V216"/><path d="M300 344 V360"/>
    <path d="M232 226 L243 237"/><path d="M357 323 L368 334"/>
    <path d="M368 226 L357 237"/><path d="M243 323 L232 334"/>
  </g>

  <!-- eight idea lines fanning out -->
  <path d="M340 248 Q470 130 620 96 H760" stroke="#00adff" stroke-width="9" stroke-linecap="round"/>
  <path d="M346 262 Q490 190 640 158 H744" stroke="#1cebcf" stroke-width="9" stroke-linecap="round"/>
  <path d="M348 274 Q520 236 660 222 H770" stroke="#732dfb" stroke-width="9" stroke-linecap="round"/>
  <path d="M348 288 Q540 292 700 288 H850" stroke="#1371ec" stroke-width="16" stroke-linecap="round"/>
  <path d="M346 300 Q520 330 650 346 H738" stroke="#00adff" stroke-width="9" stroke-linecap="round"/>
  <path d="M342 312 Q500 380 630 406 H752" stroke="#1cebcf" stroke-width="9" stroke-linecap="round"/>
  <path d="M336 322 Q470 430 600 464 H716" stroke="#732dfb" stroke-width="9" stroke-linecap="round"/>
  <path d="M326 330 Q430 470 560 512 H660" stroke="#8b8b93" stroke-width="9" stroke-linecap="round"/>

  <!-- terminal dots -->
  <g fill="#16121f" stroke-width="4">
    <circle cx="760" cy="96" r="7" stroke="#00adff"/>
    <circle cx="744" cy="158" r="7" stroke="#1cebcf"/>
    <circle cx="770" cy="222" r="7" stroke="#732dfb"/>
    <circle cx="738" cy="346" r="7" stroke="#00adff"/>
    <circle cx="752" cy="406" r="7" stroke="#1cebcf"/>
    <circle cx="716" cy="464" r="7" stroke="#732dfb"/>
    <circle cx="660" cy="512" r="7" stroke="#8b8b93"/>
  </g>

  <!-- votes on the winner -->
  <g fill="#f2efe6">
    <circle cx="600" cy="264" r="6"/>
    <circle cx="620" cy="264" r="6"/>
    <circle cx="640" cy="264" r="6"/>
  </g>

  <!-- labels -->
  <text x="36" y="248" fill="#8b8b93" font-size="13" letter-spacing="3">ONE PROBLEM</text>
  <text x="262" y="392" fill="#f2efe6" font-size="13" letter-spacing="3">SMASH</text>
  <text x="592" y="244" fill="#8b8b93" font-size="13" letter-spacing="3">VOTES</text>
</svg>
